<?xml version="1.0" encoding="UTF-8"?>
<svg id="Layer_1" data-name="Layer 1" xmlns="http://www.w3.org/2000/svg" viewBox="0 0 300 300">
  <defs>
    <style>
      .cls-1 {
        fill: #dcbaff;
      }

      .cls-2 {
        fill: #f890ac;
      }

      .cls-3 {
        fill: #fff;
        opacity: .43;
      }

      .cls-4 {
        fill: #ffde96;
      }

      .cls-5 {
        fill: #aed4ae;
      }

      .cls-6 {
        fill: #bad8ff;
      }

      .cls-7 {
        fill: #ffaa71;
      }
    </style>
  </defs>
  <g>
    <path class="cls-6" d="M86.5,27.31c-4.56,7.15-23.82,8-23.32,0,.24-3.82,1.92-3.67,3.44-4.23-1.07-2.13-.24-4.37,2.81-5.49,4.21-1.55,7.94.29,8.77,1.22,1.01-1.83,2.18-2.04,4.29-1.22,1.83.71,3.02,2.24,2.28,3.86,2.38,0,3.04,3.78,1.72,5.85Z"/>
    <path class="cls-3" d="M65.27,29.63c4.61,5.64,19.41,3.16,17.76-3.92-.79-3.38-2.05-2.96-3.3-3.21.47-2.09-.52-3.95-3.01-4.44-3.45-.68-6,1.6-6.48,2.56-1.06-1.47-1.98-1.46-3.46-.37-1.28.94-1.94,2.51-1.12,3.84-1.81.4-1.71,3.9-.38,5.53Z"/>
  </g>
  <g>
    <path class="cls-6" d="M123.67,27.31c-4.56,7.15-23.82,8-23.32,0,.24-3.82,1.92-3.67,3.44-4.23-1.07-2.13-.24-4.37,2.81-5.49,4.21-1.55,7.94.29,8.77,1.22,1.01-1.83,2.18-2.04,4.29-1.22,1.83.71,3.02,2.24,2.28,3.86,2.38,0,3.04,3.78,1.72,5.85Z"/>
    <path class="cls-3" d="M102.44,29.63c4.61,5.64,19.41,3.16,17.76-3.92-.79-3.38-2.05-2.96-3.3-3.21.47-2.09-.52-3.95-3.01-4.44-3.45-.68-6,1.6-6.48,2.56-1.06-1.47-1.98-1.46-3.46-.37-1.28.94-1.94,2.51-1.12,3.84-1.81.4-1.71,3.9-.38,5.53Z"/>
  </g>
  <g>
    <path class="cls-6" d="M199,27.31c-4.56,7.15-23.82,8-23.32,0,.24-3.82,1.92-3.67,3.44-4.23-1.07-2.13-.24-4.37,2.81-5.49,4.21-1.55,7.94.29,8.77,1.22,1.01-1.83,2.18-2.04,4.29-1.22,1.83.71,3.02,2.24,2.28,3.86,2.38,0,3.04,3.78,1.72,5.85Z"/>
    <path class="cls-3" d="M177.77,29.63c4.61,5.64,19.41,3.16,17.76-3.92-.79-3.38-2.05-2.96-3.3-3.21.47-2.09-.52-3.95-3.01-4.44-3.45-.68-6,1.6-6.48,2.56-1.06-1.47-1.98-1.46-3.46-.37-1.28.94-1.94,2.51-1.12,3.84-1.81.4-1.71,3.9-.38,5.53Z"/>
  </g>
  <g>
    <path class="cls-6" d="M236.17,27.31c-4.56,7.15-23.82,8-23.32,0,.24-3.82,1.92-3.67,3.44-4.23-1.07-2.13-.24-4.37,2.81-5.49,4.21-1.55,7.94.29,8.77,1.22,1.01-1.83,2.18-2.04,4.29-1.22,1.83.71,3.02,2.24,2.28,3.86,2.38,0,3.04,3.78,1.72,5.85Z"/>
    <path class="cls-3" d="M214.94,29.63c4.61,5.64,19.41,3.16,17.76-3.92-.79-3.38-2.05-2.96-3.3-3.21.47-2.09-.52-3.95-3.01-4.44-3.45-.68-6,1.6-6.48,2.56-1.06-1.47-1.98-1.46-3.46-.37-1.28.94-1.94,2.51-1.12,3.84-1.81.4-1.71,3.9-.38,5.53Z"/>
  </g>
  <g>
    <circle class="cls-4" cx="149.85" cy="25" r="4.96"/>
    <path class="cls-4" d="M162.5,25c0,.37-.3.68-.68.68h-23.65c-.37,0-.68-.3-.68-.68s.3-.68.68-.68h23.65c.37,0,.68.3.68.68Z"/>
    <path class="cls-4" d="M150.68,13.18v23.65c0,.37-.3.68-.68.68s-.68-.3-.68-.68V13.18c0-.37.3-.68.68-.68s.68.3.68.68Z"/>
    <path class="cls-4" d="M159.04,16.64c0,.17-.07.35-.2.48l-16.72,16.72c-.26.26-.69.26-.96,0-.26-.26-.26-.69,0-.96l16.72-16.72c.26-.26.69-.26.96,0,.13.13.2.3.2.48Z"/>
    <path class="cls-4" d="M159.04,33.36c0,.17-.07.35-.2.48-.26.26-.69.26-.96,0l-16.72-16.72c-.26-.26-.26-.69,0-.96.26-.26.69-.26.96,0l16.72,16.72c.13.13.2.3.2.48Z"/>
  </g>
  <g>
    <path class="cls-6" d="M286.33,78.81c-4.56,7.15-23.82,8-23.32,0,.24-3.82,1.92-3.67,3.44-4.23-1.07-2.13-.24-4.37,2.81-5.49,4.21-1.55,7.94.29,8.77,1.22,1.01-1.83,2.18-2.04,4.29-1.22,1.83.71,3.02,2.24,2.28,3.86,2.38,0,3.04,3.78,1.72,5.85Z"/>
    <path class="cls-3" d="M265.11,81.13c4.61,5.64,19.41,3.16,17.76-3.92-.79-3.38-2.05-2.96-3.3-3.21.47-2.09-.52-3.95-3.01-4.44-3.45-.68-6,1.6-6.48,2.56-1.06-1.47-1.98-1.46-3.46-.37-1.28.94-1.94,2.51-1.12,3.84-1.81.4-1.71,3.9-.38,5.53Z"/>
  </g>
  <g>
    <path class="cls-6" d="M286.33,113.31c-4.56,7.15-23.82,8-23.32,0,.24-3.82,1.92-3.67,3.44-4.23-1.07-2.13-.24-4.37,2.81-5.49,4.21-1.55,7.94.29,8.77,1.22,1.01-1.83,2.18-2.04,4.29-1.22,1.83.71,3.02,2.24,2.28,3.86,2.38,0,3.04,3.78,1.72,5.85Z"/>
    <path class="cls-3" d="M265.11,115.63c4.61,5.64,19.41,3.16,17.76-3.92-.79-3.38-2.05-2.96-3.3-3.21.47-2.09-.52-3.95-3.01-4.44-3.45-.68-6,1.6-6.48,2.56-1.06-1.47-1.98-1.46-3.46-.37-1.28.94-1.94,2.51-1.12,3.84-1.81.4-1.71,3.9-.38,5.53Z"/>
  </g>
  <g>
    <path class="cls-6" d="M286.33,191.31c-4.56,7.15-23.82,8-23.32,0,.24-3.82,1.92-3.67,3.44-4.23-1.07-2.13-.24-4.37,2.81-5.49,4.21-1.55,7.94.29,8.77,1.22,1.01-1.83,2.18-2.04,4.29-1.22,1.83.71,3.02,2.24,2.28,3.86,2.38,0,3.04,3.78,1.72,5.85Z"/>
    <path class="cls-3" d="M265.11,193.63c4.61,5.64,19.41,3.16,17.76-3.92-.79-3.38-2.05-2.96-3.3-3.21.47-2.09-.52-3.95-3.01-4.44-3.45-.68-6,1.6-6.48,2.56-1.06-1.47-1.98-1.46-3.46-.37-1.28.94-1.94,2.51-1.12,3.84-1.81.4-1.71,3.9-.38,5.53Z"/>
  </g>
  <g>
    <path class="cls-6" d="M286.33,225.81c-4.56,7.15-23.82,8-23.32,0,.24-3.82,1.92-3.67,3.44-4.23-1.07-2.13-.24-4.37,2.81-5.49,4.21-1.55,7.94.29,8.77,1.22,1.01-1.83,2.18-2.04,4.29-1.22,1.83.71,3.02,2.24,2.28,3.86,2.38,0,3.04,3.78,1.72,5.85Z"/>
    <path class="cls-3" d="M265.11,228.13c4.61,5.64,19.41,3.16,17.76-3.92-.79-3.38-2.05-2.96-3.3-3.21.47-2.09-.52-3.95-3.01-4.44-3.45-.68-6,1.6-6.48,2.56-1.06-1.47-1.98-1.46-3.46-.37-1.28.94-1.94,2.51-1.12,3.84-1.81.4-1.71,3.9-.38,5.53Z"/>
  </g>
  <g>
    <circle class="cls-4" cx="275" cy="149.85" r="4.96"/>
    <path class="cls-4" d="M275,162.5c-.37,0-.68-.3-.68-.68v-23.65c0-.37.3-.68.68-.68s.68.3.68.68v23.65c0,.37-.3.68-.68.68Z"/>
    <path class="cls-4" d="M286.82,150.68h-23.65c-.37,0-.68-.3-.68-.68s.3-.68.68-.68h23.65c.37,0,.68.3.68.68s-.3.68-.68.68Z"/>
    <path class="cls-4" d="M283.36,159.04c-.17,0-.35-.07-.48-.2l-16.72-16.72c-.26-.26-.26-.69,0-.96.26-.26.69-.26.96,0l16.72,16.72c.26.26.26.69,0,.96-.13.13-.3.2-.48.2Z"/>
    <path class="cls-4" d="M266.64,159.04c-.17,0-.35-.07-.48-.2-.26-.26-.26-.69,0-.96l16.72-16.72c.26-.26.69-.26.96,0,.26.26.26.69,0,.96l-16.72,16.72c-.13.13-.3.2-.48.2Z"/>
  </g>
  <g>
    <path class="cls-2" d="M279.97,38.54l-2.41-2.41c3.77-3.77,3.77-9.91,0-13.68-3.77-3.77-9.91-3.77-13.68,0l-2.41-2.41c5.1-5.1,13.4-5.1,18.5,0,5.1,5.1,5.1,13.4,0,18.5Z"/>
    <path class="cls-7" d="M282.78,41.35l-2.41-2.41c5.32-5.32,5.32-13.99,0-19.31s-13.99-5.32-19.31,0l-2.41-2.41c6.65-6.65,17.48-6.65,24.14,0s6.65,17.48,0,24.14Z"/>
    <path class="cls-4" d="M285.6,44.17l-2.41-2.41c6.88-6.88,6.88-18.06,0-24.94s-18.06-6.88-24.94,0l-2.41-2.41c8.21-8.21,21.56-8.21,29.77,0,8.21,8.21,8.21,21.56,0,29.77Z"/>
    <path class="cls-5" d="M288.42,46.98l-2.41-2.41c8.43-8.43,8.43-22.14,0-30.57-8.43-8.43-22.14-8.43-30.57,0l-2.41-2.41c9.76-9.76,25.64-9.76,35.4,0,9.76,9.76,9.76,25.64,0,35.4Z"/>
    <path class="cls-1" d="M291.43,50l-2.41-2.41c10.09-10.09,10.09-26.51,0-36.61s-26.51-10.09-36.61,0l-2.41-2.41c11.42-11.42,30.01-11.42,41.43,0,11.42,11.42,11.42,30.01,0,41.43Z"/>
  </g>
  <g>
    <path class="cls-2" d="M261.46,279.97l2.41-2.41c3.77,3.77,9.91,3.77,13.68,0s3.77-9.91,0-13.68l2.41-2.41c5.1,5.1,5.1,13.4,0,18.5s-13.4,5.1-18.5,0Z"/>
    <path class="cls-7" d="M258.65,282.78l2.41-2.41c5.32,5.32,13.99,5.32,19.31,0s5.32-13.99,0-19.31l2.41-2.41c6.65,6.65,6.65,17.48,0,24.14s-17.48,6.65-24.14,0Z"/>
    <path class="cls-4" d="M255.83,285.6l2.41-2.41c6.88,6.88,18.06,6.88,24.94,0,6.88-6.88,6.88-18.06,0-24.94l2.41-2.41c8.21,8.21,8.21,21.56,0,29.77s-21.56,8.21-29.77,0Z"/>
    <path class="cls-5" d="M253.02,288.42l2.41-2.41c8.43,8.43,22.14,8.43,30.57,0,8.43-8.43,8.43-22.14,0-30.57l2.41-2.41c9.76,9.76,9.76,25.64,0,35.4-9.76,9.76-25.64,9.76-35.4,0Z"/>
    <path class="cls-1" d="M250,291.43l2.41-2.41c10.09,10.09,26.51,10.09,36.61,0s10.09-26.51,0-36.61l2.41-2.41c11.42,11.42,11.42,30.01,0,41.43-11.42,11.42-30.01,11.42-41.43,0Z"/>
  </g>
  <g>
    <path class="cls-6" d="M36.33,78.81c-4.56,7.15-23.82,8-23.32,0,.24-3.82,1.92-3.67,3.44-4.23-1.07-2.13-.24-4.37,2.81-5.49,4.21-1.55,7.94.29,8.77,1.22,1.01-1.83,2.18-2.04,4.29-1.22,1.83.71,3.02,2.24,2.28,3.86,2.38,0,3.04,3.78,1.72,5.85Z"/>
    <path class="cls-3" d="M15.11,81.13c4.61,5.64,19.41,3.16,17.76-3.92-.79-3.38-2.05-2.96-3.3-3.21.47-2.09-.52-3.95-3.01-4.44-3.45-.68-6,1.6-6.48,2.56-1.06-1.47-1.98-1.46-3.46-.37-1.28.94-1.94,2.51-1.12,3.84-1.81.4-1.71,3.9-.38,5.53Z"/>
  </g>
  <g>
    <path class="cls-6" d="M36.33,113.31c-4.56,7.15-23.82,8-23.32,0,.24-3.82,1.92-3.67,3.44-4.23-1.07-2.13-.24-4.37,2.81-5.49,4.21-1.55,7.94.29,8.77,1.22,1.01-1.83,2.18-2.04,4.29-1.22,1.83.71,3.02,2.24,2.28,3.86,2.38,0,3.04,3.78,1.72,5.85Z"/>
    <path class="cls-3" d="M15.11,115.63c4.61,5.64,19.41,3.16,17.76-3.92-.79-3.38-2.05-2.96-3.3-3.21.47-2.09-.52-3.95-3.01-4.44-3.45-.68-6,1.6-6.48,2.56-1.06-1.47-1.98-1.46-3.46-.37-1.28.94-1.94,2.51-1.12,3.84-1.81.4-1.71,3.9-.38,5.53Z"/>
  </g>
  <g>
    <path class="cls-6" d="M36.33,191.31c-4.56,7.15-23.82,8-23.32,0,.24-3.82,1.92-3.67,3.44-4.23-1.07-2.13-.24-4.37,2.81-5.49,4.21-1.55,7.94.29,8.77,1.22,1.01-1.83,2.18-2.04,4.29-1.22,1.83.71,3.02,2.24,2.28,3.86,2.38,0,3.04,3.78,1.72,5.85Z"/>
    <path class="cls-3" d="M15.11,193.63c4.61,5.64,19.41,3.16,17.76-3.92-.79-3.38-2.05-2.96-3.3-3.21.47-2.09-.52-3.95-3.01-4.44-3.45-.68-6,1.6-6.48,2.56-1.06-1.47-1.98-1.46-3.46-.37-1.28.94-1.94,2.51-1.12,3.84-1.81.4-1.71,3.9-.38,5.53Z"/>
  </g>
  <g>
    <path class="cls-6" d="M36.33,225.81c-4.56,7.15-23.82,8-23.32,0,.24-3.82,1.92-3.67,3.44-4.23-1.07-2.13-.24-4.37,2.81-5.49,4.21-1.55,7.94.29,8.77,1.22,1.01-1.83,2.18-2.04,4.29-1.22,1.83.71,3.02,2.24,2.28,3.86,2.38,0,3.04,3.78,1.72,5.85Z"/>
    <path class="cls-3" d="M15.11,228.13c4.61,5.64,19.41,3.16,17.76-3.92-.79-3.38-2.05-2.96-3.3-3.21.47-2.09-.52-3.95-3.01-4.44-3.45-.68-6,1.6-6.48,2.56-1.06-1.47-1.98-1.46-3.46-.37-1.28.94-1.94,2.51-1.12,3.84-1.81.4-1.71,3.9-.38,5.53Z"/>
  </g>
  <g>
    <circle class="cls-4" cx="25" cy="149.85" r="4.96"/>
    <path class="cls-4" d="M25,162.5c-.37,0-.68-.3-.68-.68v-23.65c0-.37.3-.68.68-.68s.68.3.68.68v23.65c0,.37-.3.68-.68.68Z"/>
    <path class="cls-4" d="M36.82,150.68H13.18c-.37,0-.68-.3-.68-.68s.3-.68.68-.68h23.65c.37,0,.68.3.68.68s-.3.68-.68.68Z"/>
    <path class="cls-4" d="M33.36,159.04c-.17,0-.35-.07-.48-.2l-16.72-16.72c-.26-.26-.26-.69,0-.96.26-.26.69-.26.96,0l16.72,16.72c.26.26.26.69,0,.96-.13.13-.3.2-.48.2Z"/>
    <path class="cls-4" d="M16.64,159.04c-.17,0-.35-.07-.48-.2-.26-.26-.26-.69,0-.96l16.72-16.72c.26-.26.69-.26.96,0,.26.26.26.69,0,.96l-16.72,16.72c-.13.13-.3.2-.48.2Z"/>
  </g>
  <g>
    <path class="cls-2" d="M38.54,20.03l-2.41,2.41c-3.77-3.77-9.91-3.77-13.68,0s-3.77,9.91,0,13.68l-2.41,2.41c-5.1-5.1-5.1-13.4,0-18.5s13.4-5.1,18.5,0Z"/>
    <path class="cls-7" d="M41.35,17.22l-2.41,2.41c-5.32-5.32-13.99-5.32-19.31,0s-5.32,13.99,0,19.31l-2.41,2.41c-6.65-6.65-6.65-17.48,0-24.14s17.48-6.65,24.14,0Z"/>
    <path class="cls-4" d="M44.17,14.4l-2.41,2.41c-6.88-6.88-18.06-6.88-24.94,0-6.88,6.88-6.88,18.06,0,24.94l-2.41,2.41c-8.21-8.21-8.21-21.56,0-29.77s21.56-8.21,29.77,0Z"/>
    <path class="cls-5" d="M46.98,11.58l-2.41,2.41c-8.43-8.43-22.14-8.43-30.57,0s-8.43,22.14,0,30.57l-2.41,2.41C1.82,37.22,1.82,21.34,11.58,11.58c9.76-9.76,25.64-9.76,35.4,0Z"/>
    <path class="cls-1" d="M50,8.57l-2.41,2.41C37.49.89,21.07.89,10.98,10.98s-10.09,26.51,0,36.61l-2.41,2.41c-11.42-11.42-11.42-30.01,0-41.43,11.42-11.42,30.01-11.42,41.43,0Z"/>
  </g>
  <g>
    <path class="cls-2" d="M20.03,261.46l2.41,2.41c-3.77,3.77-3.77,9.91,0,13.68s9.91,3.77,13.68,0l2.41,2.41c-5.1,5.1-13.4,5.1-18.5,0s-5.1-13.4,0-18.5Z"/>
    <path class="cls-7" d="M17.22,258.65l2.41,2.41c-5.32,5.32-5.32,13.99,0,19.31s13.99,5.32,19.31,0l2.41,2.41c-6.65,6.65-17.48,6.65-24.14,0s-6.65-17.48,0-24.14Z"/>
    <path class="cls-4" d="M14.4,255.83l2.41,2.41c-6.88,6.88-6.88,18.06,0,24.94s18.06,6.88,24.94,0l2.41,2.41c-8.21,8.21-21.56,8.21-29.77,0s-8.21-21.56,0-29.77Z"/>
    <path class="cls-5" d="M11.58,253.02l2.41,2.41c-8.43,8.43-8.43,22.14,0,30.57s22.14,8.43,30.57,0l2.41,2.41c-9.76,9.76-25.64,9.76-35.4,0-9.76-9.76-9.76-25.64,0-35.4Z"/>
    <path class="cls-1" d="M8.57,250l2.41,2.41c-10.09,10.09-10.09,26.51,0,36.61s26.51,10.09,36.61,0l2.41,2.41c-11.42,11.42-30.01,11.42-41.43,0-11.42-11.42-11.42-30.01,0-41.43Z"/>
  </g>
  <g>
    <path class="cls-6" d="M87.54,277.31c-4.56,7.15-23.82,8-23.32,0,.24-3.82,1.92-3.67,3.44-4.23-1.07-2.13-.24-4.37,2.81-5.49,4.21-1.55,7.94.29,8.77,1.22,1.01-1.83,2.18-2.04,4.29-1.22,1.83.71,3.02,2.24,2.28,3.86,2.38,0,3.04,3.78,1.72,5.85Z"/>
    <path class="cls-3" d="M66.31,279.63c4.61,5.64,19.41,3.16,17.76-3.92-.79-3.38-2.05-2.96-3.3-3.21.47-2.09-.52-3.95-3.01-4.44-3.45-.68-6,1.6-6.48,2.56-1.06-1.47-1.98-1.46-3.46-.37-1.28.94-1.94,2.51-1.12,3.84-1.81.4-1.71,3.9-.38,5.53Z"/>
  </g>
  <g>
    <path class="cls-6" d="M124.5,277.31c-4.56,7.15-23.82,8-23.32,0,.24-3.82,1.92-3.67,3.44-4.23-1.07-2.13-.24-4.37,2.81-5.49,4.21-1.55,7.94.29,8.77,1.22,1.01-1.83,2.18-2.04,4.29-1.22,1.83.71,3.02,2.24,2.28,3.86,2.38,0,3.04,3.78,1.72,5.85Z"/>
    <path class="cls-3" d="M103.27,279.63c4.61,5.64,19.41,3.16,17.76-3.92-.79-3.38-2.05-2.96-3.3-3.21.47-2.09-.52-3.95-3.01-4.44-3.45-.68-6,1.6-6.48,2.56-1.06-1.47-1.98-1.46-3.46-.37-1.28.94-1.94,2.51-1.12,3.84-1.81.4-1.71,3.9-.38,5.53Z"/>
  </g>
  <g>
    <path class="cls-6" d="M199.42,277.31c-4.56,7.15-23.82,8-23.32,0,.24-3.82,1.92-3.67,3.44-4.23-1.07-2.13-.24-4.37,2.81-5.49,4.21-1.55,7.94.29,8.77,1.22,1.01-1.83,2.18-2.04,4.29-1.22,1.83.71,3.02,2.24,2.28,3.86,2.38,0,3.04,3.78,1.72,5.85Z"/>
    <path class="cls-3" d="M178.19,279.63c4.61,5.64,19.41,3.16,17.76-3.92-.79-3.38-2.05-2.96-3.3-3.21.47-2.09-.52-3.95-3.01-4.44-3.45-.68-6,1.6-6.48,2.56-1.06-1.47-1.98-1.46-3.46-.37-1.28.94-1.94,2.51-1.12,3.84-1.81.4-1.71,3.9-.38,5.53Z"/>
  </g>
  <g>
    <path class="cls-6" d="M236.37,277.31c-4.56,7.15-23.82,8-23.32,0,.24-3.82,1.92-3.67,3.44-4.23-1.07-2.13-.24-4.37,2.81-5.49,4.21-1.55,7.94.29,8.77,1.22,1.01-1.83,2.18-2.04,4.29-1.22,1.83.71,3.02,2.24,2.28,3.86,2.38,0,3.04,3.78,1.72,5.85Z"/>
    <path class="cls-3" d="M215.15,279.63c4.61,5.64,19.41,3.16,17.76-3.92-.79-3.38-2.05-2.96-3.3-3.21.47-2.09-.52-3.95-3.01-4.44-3.45-.68-6,1.6-6.48,2.56-1.06-1.47-1.98-1.46-3.46-.37-1.28.94-1.94,2.51-1.12,3.84-1.81.4-1.71,3.9-.38,5.53Z"/>
  </g>
  <g>
    <circle class="cls-4" cx="150.47" cy="275" r="4.96"/>
    <path class="cls-4" d="M163.12,275c0,.37-.3.68-.68.68h-23.65c-.37,0-.68-.3-.68-.68s.3-.68.68-.68h23.65c.37,0,.68.3.68.68Z"/>
    <path class="cls-4" d="M151.3,263.18v23.65c0,.37-.3.68-.68.68s-.68-.3-.68-.68v-23.65c0-.37.3-.68.68-.68s.68.3.68.68Z"/>
    <path class="cls-4" d="M159.66,266.64c0,.17-.07.35-.2.48l-16.72,16.72c-.26.26-.69.26-.96,0-.26-.26-.26-.69,0-.96l16.72-16.72c.26-.26.69-.26.96,0,.13.13.2.3.2.48Z"/>
    <path class="cls-4" d="M159.66,283.36c0,.17-.07.35-.2.48-.26.26-.69.26-.96,0l-16.72-16.72c-.26-.26-.26-.69,0-.96.26-.26.69-.26.96,0l16.72,16.72c.13.13.2.3.2.48Z"/>
  </g>
</svg>